<?xml version="1.0" encoding="UTF-8" standalone="no"?>
<!-- Created with Inkscape (http://www.inkscape.org/) -->

<svg
   width="44.943783mm"
   height="72.965767mm"
   viewBox="0 0 44.943784 72.965766"
   version="1.1"
   id="svg5"
   xml:space="preserve"
   inkscape:version="1.2.2 (732a01da63, 2022-12-09)"
   sodipodi:docname="logo_icon.svg"
   xmlns:inkscape="http://www.inkscape.org/namespaces/inkscape"
   xmlns:sodipodi="http://sodipodi.sourceforge.net/DTD/sodipodi-0.dtd"
   xmlns="http://www.w3.org/2000/svg"
   xmlns:svg="http://www.w3.org/2000/svg"><sodipodi:namedview
     id="namedview7"
     pagecolor="#ffffff"
     bordercolor="#000000"
     borderopacity="0.25"
     inkscape:showpageshadow="2"
     inkscape:pageopacity="0.0"
     inkscape:pagecheckerboard="0"
     inkscape:deskcolor="#d1d1d1"
     inkscape:document-units="mm"
     showgrid="false"
     inkscape:zoom="2.0417779"
     inkscape:cx="170.43969"
     inkscape:cy="203.25423"
     inkscape:window-width="1600"
     inkscape:window-height="847"
     inkscape:window-x="672"
     inkscape:window-y="1072"
     inkscape:window-maximized="1"
     inkscape:current-layer="g6189-7" /><defs
     id="defs2"><rect
       x="-1281.8604"
       y="378.13693"
       width="1041.6602"
       height="375.7587"
       id="rect1058-4-27" /><rect
       x="-1281.8604"
       y="378.13693"
       width="1041.6602"
       height="375.7587"
       id="rect1058-4" /></defs><g
     inkscape:label="Camada 1"
     inkscape:groupmode="layer"
     id="layer1"
     transform="translate(213.26865,-173.29353)"><g
       id="g6189-7"
       transform="matrix(0.74191279,0,0,0.74191279,-120.7292,340.55185)"
       style="fill:#000000"><path
         id="rect4023-3-69"
         style="stroke-width:1.28184;stroke-linecap:round;stroke-linejoin:round;stroke-dasharray:1.28184, 3.84552;paint-order:markers stroke fill"
         d="m -74.004119,-202.19077 c 0.928738,0 1.676422,1.00778 1.676422,2.2596 v 41.77124 c 0,1.25181 -0.747684,2.25959 -1.676422,2.25959 -0.928739,0 -1.676423,-1.00778 -1.676423,-2.25959 v -41.77124 c 0,-1.25182 0.747684,-2.2596 1.676423,-2.2596 z" /><path
         id="rect3999-3-9"
         style="stroke-width:1.64355;stroke-linecap:round;stroke-linejoin:round;stroke-dasharray:1.64355, 4.93066;paint-order:markers stroke fill"
         d="m -98.529296,-214.31857 c 0.928738,0 1.676422,1.00778 1.676422,2.25959 v 71.58208 c 0,1.25182 -0.747684,2.2596 -1.676422,2.2596 -0.928739,0 -1.676424,-1.00778 -1.676424,-2.2596 v -71.58208 c 0,-1.25181 0.747685,-2.25959 1.676424,-2.25959 z" /><path
         id="rect3136-2-0-4-1-89"
         style="stroke-width:1.8684;stroke-linecap:round;stroke-linejoin:round;stroke-dasharray:1.8684, 5.60522;paint-order:markers stroke fill"
         transform="scale(-1,1)"
         d="m 106.70435,-225.44202 c 0.92874,0 1.67643,1.00778 1.67643,2.2596 v 93.82898 c 0,1.25181 -0.74769,2.25959 -1.67643,2.25959 -0.92873,0 -1.67642,-1.00778 -1.67642,-2.25959 v -93.82898 c 0,-1.25182 0.74769,-2.2596 1.67642,-2.2596 z" /><path
         id="rect3136-39-5-0-1-26"
         style="stroke-width:0.957398;stroke-linecap:round;stroke-linejoin:round;stroke-dasharray:0.957398, 2.8722;paint-order:markers stroke fill"
         transform="scale(-1,1)"
         d="m 114.87943,-189.17958 c 0.92873,0 1.67642,1.00778 1.67642,2.25959 v 21.3041 c 0,1.25181 -0.74769,2.25959 -1.67642,2.25959 -0.92874,0 -1.67643,-1.00778 -1.67643,-2.25959 v -21.3041 c 0,-1.25181 0.74769,-2.25959 1.67643,-2.25959 z" /><path
         id="rect3136-46-5-9-7-1"
         style="stroke-width:0.576419;stroke-linecap:round;stroke-linejoin:round;stroke-dasharray:0.576419, 1.72926;paint-order:markers stroke fill"
         transform="scale(-1,1)"
         d="m 123.05447,-180.94823 c 0.92874,0 1.67643,1.00778 1.67643,2.2596 v 4.84139 c 0,1.25181 -0.74769,2.25959 -1.67643,2.25959 -0.92873,0 -1.67642,-1.00778 -1.67642,-2.25959 v -4.84139 c 0,-1.25182 0.74769,-2.2596 1.67642,-2.2596 z" /><path
         id="rect3136-46-5-9-7-2-8"
         style="stroke-width:0.576419;stroke-linecap:round;stroke-linejoin:round;stroke-dasharray:0.576419, 1.72926;paint-order:markers stroke fill"
         transform="scale(-1,1)"
         d="m 65.829064,-179.36058 c 0.928738,0 1.676422,1.00778 1.676422,2.25959 v 4.84139 c 0,1.25182 -0.747684,2.2596 -1.676422,2.2596 -0.928738,0 -1.676423,-1.00778 -1.676423,-2.2596 v -4.84139 c 0,-1.25181 0.747685,-2.25959 1.676423,-2.25959 z" /><path
         id="rect4041-7-5"
         style="stroke-width:0.923817;stroke-linecap:round;stroke-linejoin:round;stroke-dasharray:0.923817, 2.77146;paint-order:markers stroke fill"
         d="m -82.179183,-188.60745 c 0.928738,0 1.676422,1.00778 1.676422,2.25959 v 19.52434 c 0,1.25182 -0.747684,2.2596 -1.676422,2.2596 -0.928739,0 -1.676423,-1.00778 -1.676423,-2.2596 v -19.52434 c 0,-1.25181 0.747684,-2.25959 1.676423,-2.25959 z" /><path
         id="rect4023-0-7"
         style="stroke-width:1.28184;stroke-linecap:round;stroke-linejoin:round;stroke-dasharray:1.28184, 3.84552;paint-order:markers stroke fill"
         d="m -90.35424,-199.51009 c 0.928738,0 1.676423,1.00778 1.676423,2.2596 v 41.77124 c 0,1.25181 -0.747685,2.25959 -1.676423,2.25959 -0.928738,0 -1.676423,-1.00778 -1.676423,-2.25959 v -41.77124 c 0,-1.25182 0.747685,-2.2596 1.676423,-2.2596 z" /></g></g></svg>
