<?xml version="1.0" encoding="UTF-8" standalone="no"?>
<!-- Created with Inkscape (http://www.inkscape.org/) -->

<svg
   width="128.06792mm"
   height="26.834688mm"
   viewBox="0 0 128.06792 26.834688"
   version="1.1"
   id="svg5"
   xml:space="preserve"
   inkscape:version="1.2.2 (732a01da63, 2022-12-09)"
   sodipodi:docname="logo_lab.svg"
   xmlns:inkscape="http://www.inkscape.org/namespaces/inkscape"
   xmlns:sodipodi="http://sodipodi.sourceforge.net/DTD/sodipodi-0.dtd"
   xmlns="http://www.w3.org/2000/svg"
   xmlns:svg="http://www.w3.org/2000/svg"><sodipodi:namedview
     id="namedview7"
     pagecolor="#ffffff"
     bordercolor="#000000"
     borderopacity="0.25"
     inkscape:showpageshadow="2"
     inkscape:pageopacity="0.0"
     inkscape:pagecheckerboard="0"
     inkscape:deskcolor="#d1d1d1"
     inkscape:document-units="mm"
     showgrid="false"
     inkscape:zoom="0.72187751"
     inkscape:cx="180.08595"
     inkscape:cy="319.99889"
     inkscape:window-width="1600"
     inkscape:window-height="847"
     inkscape:window-x="672"
     inkscape:window-y="1072"
     inkscape:window-maximized="1"
     inkscape:current-layer="text1056-0" /><defs
     id="defs2"><rect
       x="-172.39877"
       y="-129.29908"
       width="344.79754"
       height="230.72152"
       id="rect699" /><rect
       x="-1281.8604"
       y="378.13693"
       width="1041.6602"
       height="375.7587"
       id="rect1058-4-27" /></defs><g
     inkscape:label="Camada 1"
     inkscape:groupmode="layer"
     id="layer1"
     transform="translate(145.25806,-143.94735)"><g
       aria-label="LAB 73"
       transform="matrix(0.19629776,0,0,0.19629776,102.0715,61.004339)"
       id="text1056-0"
       style="font-weight:bold;font-size:192px;font-family:'League Gothic';-inkscape-font-specification:'League Gothic Bold';white-space:pre;shape-inside:url(#rect1058-4-27);display:inline;stroke-width:3.79087;stroke-linecap:round;stroke-linejoin:round;stroke-dasharray:3.79087, 11.3726;paint-order:markers stroke fill"><path
         d="m -1259.9714,556.93672 v -134.4 h 14.208 v 122.112 h 75.264 v 12.288 z"
         style="font-weight:normal;font-family:Montserrat;-inkscape-font-specification:Montserrat"
         id="path703" /><path
         d="m -1168.3872,556.93672 61.44,-134.4 h 14.016 l 61.44,134.4 h -14.976 l -56.448,-126.144 h 5.76 l -56.448,126.144 z m 24.192,-35.904 4.224,-11.52 h 78.144 l 4.224,11.52 z"
         style="font-weight:normal;font-family:Montserrat;-inkscape-font-specification:Montserrat"
         id="path705" /><path
         d="m -1009.2191,556.93672 v -134.4 h 57.98404 q 22.464,0 34.752,9.024 12.48,9.024 12.48,25.536 0,10.944 -5.184,18.432 -4.992,7.488 -13.824,11.328 -8.64,3.84 -19.008,3.84 l 3.264,-4.608 q 12.864,0 22.08,4.032 9.408,3.84 14.592,11.712 5.184,7.68 5.184,19.2 0,17.088 -12.672,26.496 -12.48,9.408 -37.824,9.408 z m 14.20804,-11.712 h 47.424 q 17.664,0 27.072,-5.952 9.408,-6.144 9.408,-19.392 0,-13.056 -9.408,-19.008 -9.408,-6.144 -27.072,-6.144 h -48.96 v -11.712 h 44.352 q 16.128,0 24.96,-6.144 9.024,-6.144 9.024,-18.24 0,-12.288 -9.024,-18.24 -8.832,-6.144 -24.96,-6.144 h -42.816 z"
         style="font-weight:normal;font-family:Montserrat;-inkscape-font-specification:Montserrat"
         id="path707" /><path
         d="m -803.01093,556.93672 54.144,-122.496 8.064,13.44 h -72.384 l 13.824,-14.592 v 36.48 h -27.648 v -47.232 h 107.712 v 20.16 l -49.92,114.24 z"
         style="font-family:Montserrat;-inkscape-font-specification:'Montserrat Bold'"
         id="path709" /><path
         d="m -663.23476,559.24072 q -14.016,0 -27.84,-3.648 -13.824,-3.84 -23.424,-10.752 l 12.096,-23.808 q 7.68,5.568 17.856,8.832 10.176,3.264 20.544,3.264 11.712,0 18.432,-4.608 6.72,-4.608 6.72,-12.672 0,-7.68 -5.952,-12.096 -5.952,-4.416 -19.2,-4.416 h -14.208 v -20.544 l 37.44,-42.432 3.456,11.136 h -70.464 v -24.96 h 94.08 v 20.16 l -37.248,42.432 -15.744,-9.024 h 9.024 q 24.768,0 37.44,11.136 12.672,11.136 12.672,28.608 0,11.328 -5.952,21.312 -5.952,9.792 -18.24,15.936 -12.288,6.144 -31.488,6.144 z"
         style="font-family:Montserrat;-inkscape-font-specification:'Montserrat Bold'"
         id="path711" /></g><text
       xml:space="preserve"
       transform="matrix(0.26458333,0,0,0.26458333,-145.25806,143.94735)"
       id="text697"
       style="fill:#000000;stroke-width:1.51181096;-inkscape-font-specification:'Montserrat Bold';font-family:Montserrat;font-size:192px;paint-order:markers stroke fill;font-weight:bold;stroke-linecap:square;text-align:center;stroke:#000000;white-space:pre;shape-inside:url(#rect699)" /></g></svg>
